<?xml version="1.0" encoding="UTF-8"?>
<svg version="1.1" xmlns="http://www.w3.org/2000/svg" width="50" height="50">
<path d="M0 0 C1.86011719 0.00966797 1.86011719 0.00966797 3.7578125 0.01953125 C6.875 0.1875 6.875 0.1875 8.875 1.1875 C8.31859561 4.72409775 7.2518247 6.03433682 4.4375 8.1875 C1.69407559 10.29518305 0.07981447 11.9080538 -1.125 15.1875 C-1.78228611 20.67507474 -1.88108529 25.58808882 0.5 30.625 C2.33123708 32.60080843 4.04649811 34.20037762 6.125 35.875 C7.0325 36.638125 7.94 37.40125 8.875 38.1875 C8.875 39.1775 8.875 40.1675 8.875 41.1875 C4.1915083 43.52924585 -2.04509232 42.6832366 -7.125 42.1875 C-13.12184982 39.98438901 -16.87649161 35.80964261 -20.19921875 30.45703125 C-22.4775457 24.8717656 -22.25655379 17.24550073 -20.1796875 11.6328125 C-15.36397635 3.60662725 -9.26584113 -0.10639275 0 0 Z M-14.9375 10.3125 C-19.01663231 15.67364533 -18.73859076 20.59355991 -18.125 27.1875 C-15.65004043 32.4229914 -11.34041538 36.57979231 -6.125 39.1875 C-4.41797265 39.25746014 -2.70831997 39.27190154 -1 39.25 C-0.08992188 39.24097656 0.82015625 39.23195312 1.7578125 39.22265625 C2.45648438 39.21105469 3.15515625 39.19945312 3.875 39.1875 C3.26011719 38.49914063 3.26011719 38.49914063 2.6328125 37.796875 C2.09398438 37.18328125 1.55515625 36.5696875 1 35.9375 C0.46632813 35.33421875 -0.06734375 34.7309375 -0.6171875 34.109375 C-4.68649984 28.92258311 -4.65347232 24.23049572 -4.5859375 17.75390625 C-3.7778039 11.50114376 -0.46610081 7.52860081 3.875 3.1875 C-4.56843646 2.5867812 -9.24776788 3.71758322 -14.9375 10.3125 Z " fill="#FFFFFF" transform="translate(31.125,3.8125)"/>
</svg>
